HIERARCHY
ROOT Hips
{
	OFFSET 0.00000 0.00000 0.00000
	CHANNELS 6 Xposition Yposition Zposition Zrotation Yrotation Xrotation 
	JOINT LHipJoint
	{
		OFFSET 0 0 0
		CHANNELS 3 Zrotation Yrotation Xrotation
		JOINT LeftHip
		{
			OFFSET 1.30186 -1.90722 0.65024
			CHANNELS 3 Zrotation Yrotation Xrotation
			JOINT LeftKnee
			{
				OFFSET 2.56413 -7.04489 0.00000
				CHANNELS 3 Zrotation Yrotation Xrotation
				JOINT LeftAnkle
				{
					OFFSET 2.79321 -7.67428 0.00000
					CHANNELS 3 Zrotation Yrotation Xrotation
					JOINT LeftToe
					{
						OFFSET 0.15723 -0.43198 2.08537
						CHANNELS 3 Zrotation Yrotation Xrotation
						End Site
						{
							OFFSET 0.00000 -0.00000 1.07411
						}
					}
				}
			}
		}
	}
	JOINT RHipJoint
	{
		OFFSET 0 0 0
		CHANNELS 3 Zrotation Yrotation Xrotation
		JOINT RightHip
		{
			OFFSET -1.28627 -1.90723 0.65024
			CHANNELS 3 Zrotation Yrotation Xrotation
			JOINT RightKnee
			{
				OFFSET -2.56567 -7.04913 0.00000
				CHANNELS 3 Zrotation Yrotation Xrotation
				JOINT RightAnkle
				{
					OFFSET -2.75597 -7.57198 0.00000
					CHANNELS 3 Zrotation Yrotation Xrotation
					JOINT RightToe
					{
						OFFSET -0.17500 -0.48081 2.22901
						CHANNELS 3 Zrotation Yrotation Xrotation
						End Site
						{
							OFFSET -0.00000 -0.00000 1.14762
						}
					}
				}
			}
		}
	}
	JOINT lowerback
	{
		OFFSET 0 0 0
		CHANNELS 3 Zrotation Yrotation Xrotation
		JOINT Chest
		{
			OFFSET -0.04522 2.07467 -0.16566
			CHANNELS 3 Zrotation Yrotation Xrotation
			JOINT Chest2
			{
				OFFSET -0.01178 2.08825 -0.05393
				CHANNELS 3 Zrotation Yrotation Xrotation
				JOINT lowerneck
				{
					OFFSET 0 0 0
					CHANNELS 3 Zrotation Yrotation Xrotation
					JOINT Neck
					{
						OFFSET -0.05182 1.80489 0.16014
						CHANNELS 3 Zrotation Yrotation Xrotation
						JOINT Head
						{
							OFFSET 0.14739 1.78840 -0.33342
							CHANNELS 3 Zrotation Yrotation Xrotation
							End Site
							{
								OFFSET 0.04364 1.83899 -0.13460
							}
						}
					}
				}
				JOINT LeftCollar
				{
					OFFSET 0 0 0
					CHANNELS 3 Zrotation Yrotation Xrotation
					JOINT LeftShoulder
					{
						OFFSET 3.01264 1.29090 -0.06579
CHANNELS 3 Zrotation Xrotation Yrotation
						JOINT LeftElbow
						{
OFFSET 0 -5.556800 0.000000
CHANNELS 3 Zrotation Xrotation Yrotation
							JOINT LeftWrist
							{
OFFSET 0 -3.639790 -0.000000
CHANNELS 3 Zrotation Xrotation Yrotation
								JOINT lhand
								{
									OFFSET 0 0 0
CHANNELS 3 Zrotation Xrotation Yrotation
									JOINT LFingers
									{
OFFSET 0 -0.569420 -0.000000
CHANNELS 3 Zrotation Xrotation Yrotation
										End Site
										{
OFFSET 0 -0.459080 -0.000000
										}
									}
								}
								JOINT LThumb
								{
OFFSET 0 0.000000 0.000000
CHANNELS 3 Zrotation Xrotation Yrotation
									End Site
									{
OFFSET 0 -0.466090 0.466090
									}
								}
							}
						}
					}
				}
				JOINT RightCollar
				{
					OFFSET 0 0 0
					CHANNELS 3 Zrotation Yrotation Xrotation
					JOINT RightShoulder
					{
						OFFSET -3.15796 1.37283 -0.36748
CHANNELS 3 Zrotation Xrotation Yrotation
						JOINT RightElbow
						{
OFFSET 0 -5.343390 0.000000
CHANNELS 3 Zrotation Xrotation Yrotation
							JOINT RightWrist
							{
OFFSET 0 -3.651010 -0.000000
CHANNELS 3 Zrotation Xrotation Yrotation
								JOINT rhand
								{
									OFFSET 0 0 0
CHANNELS 3 Zrotation Xrotation Yrotation
									JOINT RFingers
									{
OFFSET 0 -0.694250 -0.000000
CHANNELS 3 Zrotation Xrotation Yrotation
										End Site
										{
OFFSET 0 -0.559720 -0.000000
										}
									}
								}
								JOINT RThumb
								{
OFFSET 0 0.000000 0.000000
CHANNELS 3 Zrotation Xrotation Yrotation
									End Site
									{
OFFSET 0 -0.568270 0.568270
									}
								}
							}
						}
					}
				}
			}
		}
	}
}
MOTION
Frames: 10
Frame Time: 0.008333333333333333
14.242999 18.236725 2.346087 -183.898461 1.052667 -174.748683 0.000000 0.000000 0.000000 -24.587802 -0.095579 4.733137 4.360920 12.617848 37.966756 0.187501 -0.842992 8.525044 0.526222 -4.645564 -12.900899 0.000000 0.000000 0.000000 11.804356 23.680906 -26.013777 -3.131230 -10.904546 31.958499 -0.041039 -1.460997 -4.657657 -0.329402 -3.677123 10.171115 -5.669242 -2.072200 -1.418201 1.171915 -2.686895 -0.669234 4.333144 -1.338024 0.422615 -1.017359 0.700861 -9.933050 -3.562226 2.134901 15.518534 -0.768848 0.854322 6.385748 0.000000 0.000000 0.000000 8.298177 -39.019012 -20.833732 19.004560 -29.421879 5.034276 27.032532 -16.307559 -18.399826 0.000000 0.000000 0.000000 -7.125000 0.000000 0.000000 -1.090221 50.455418 0.145281 0.000000 0.000000 0.000000 -0.494879 5.960003 -22.862949 -3.462107 -5.970935 -0.181350 -19.657160 28.170608 -27.275662 0.000000 0.000000 0.000000 7.125000 0.000000 0.000000 6.249868 1.428963 6.130362
14.256798 18.242976 2.272861 -183.587382 0.907802 -174.752048 0.000000 0.000000 0.000000 -24.124406 -0.483538 3.898610 4.672960 12.997345 39.372667 0.169904 -0.996175 8.208533 0.571465 -4.837692 -13.446897 0.000000 0.000000 0.000000 12.342469 23.649317 -25.645531 -3.114691 -10.878439 31.870897 -0.044116 -1.519991 -4.831370 -0.274206 -3.354169 9.267545 -5.412927 -2.090999 -1.438202 1.247545 -2.714685 -0.676302 4.265832 -1.351871 0.421846 -1.174677 0.668984 -10.060751 -3.305478 2.092302 15.751001 -0.663745 0.841965 6.477245 0.000000 0.000000 0.000000 7.968732 -38.486236 -21.183996 18.600879 -28.917038 4.837628 26.188197 -16.873078 -18.459878 0.000000 0.000000 0.000000 -7.125000 0.000000 0.000000 -1.945663 50.375653 0.256442 0.000000 0.000000 0.000000 -0.445837 5.450210 -22.854246 -3.705922 -6.387405 -0.207650 -19.527680 28.146424 -28.070186 0.000000 0.000000 0.000000 7.125000 0.000000 0.000000 6.413004 0.640689 6.382687
14.269850 18.248337 2.200645 -183.280748 0.788025 -174.789957 0.000000 0.000000 0.000000 -23.657070 -0.810734 3.073516 4.985101 13.361186 40.746742 0.148590 -1.088333 7.740983 0.593640 -4.932435 -13.716049 0.000000 0.000000 0.000000 12.872421 23.658876 -25.220119 -3.095202 -10.847524 31.767357 -0.048728 -1.605852 -5.079643 -0.274581 -3.349996 9.256547 -5.171863 -2.088487 -1.481535 1.318569 -2.712478 -0.638282 4.201287 -1.353355 0.477698 -1.318906 0.615675 -10.187200 -3.062547 2.018412 15.965127 -0.567874 0.814377 6.562944 0.000000 0.000000 0.000000 7.722088 -38.185724 -21.615243 17.993437 -28.138361 4.551614 25.566672 -17.382864 -18.372044 0.000000 0.000000 0.000000 -7.125000 0.000000 0.000000 -2.545570 50.175029 0.323344 0.000000 0.000000 0.000000 -0.394210 4.789216 -22.882389 -3.904245 -6.725902 -0.229708 -19.457892 28.065981 -28.728742 0.000000 0.000000 0.000000 7.125000 0.000000 0.000000 6.527295 -0.018666 6.572310
14.281870 18.252472 2.129823 -182.980247 0.702875 -174.875539 0.000000 0.000000 0.000000 -23.184298 -1.054067 2.261443 5.297382 13.703420 42.076879 0.122146 -1.096266 7.064977 0.583976 -4.892769 -13.603109 0.000000 0.000000 0.000000 13.391110 23.725227 -24.715806 -3.071643 -10.809973 31.641820 -0.055459 -1.728793 -5.430821 -0.351654 -3.785794 10.477446 -4.951849 -2.056562 -1.557069 1.383237 -2.668870 -0.538035 4.140562 -1.337777 0.611698 -1.445068 0.532784 -10.311920 -2.838686 1.901337 16.153937 -0.484743 0.765768 6.640641 0.000000 0.000000 0.000000 7.589724 -38.205773 -22.158260 17.104772 -26.981745 4.142260 25.252660 -17.815729 -18.080101 0.000000 0.000000 0.000000 -7.125000 0.000000 0.000000 -2.792798 49.807601 0.329162 0.000000 0.000000 0.000000 -0.339014 3.919543 -22.961385 -4.039783 -6.956783 -0.245911 -19.470489 27.907894 -29.199639 0.000000 0.000000 0.000000 7.125000 0.000000 0.000000 6.574173 -0.500092 6.675393
14.292679 18.256885 2.060228 -182.696107 0.641874 -174.942962 0.000000 0.000000 0.000000 -22.723617 -1.257154 1.403871 5.604083 14.029540 43.363808 0.096651 -1.030184 6.312353 0.556822 -4.775013 -13.268908 0.000000 0.000000 0.000000 13.880382 23.776837 -24.252003 -3.049196 -10.774124 31.522041 -0.061781 -1.830923 -5.742438 -0.423425 -4.170449 11.557513 -4.721069 -2.013789 -1.606835 1.429450 -2.612336 -0.476972 4.056915 -1.312972 0.688435 -1.545610 0.453608 -10.407567 -2.636470 1.793833 16.381719 -0.411772 0.723393 6.726601 0.000000 0.000000 0.000000 7.256942 -37.906169 -22.301751 16.521412 -26.222577 3.873492 24.828542 -17.582293 -17.866346 0.000000 0.000000 0.000000 -7.125000 0.000000 0.000000 -3.163336 49.507709 0.350440 0.000000 0.000000 0.000000 -0.269813 3.114347 -23.050230 -4.184761 -7.203468 -0.263750 -19.463339 27.753520 -29.571767 0.000000 0.000000 0.000000 7.125000 0.000000 0.000000 6.621362 -0.877253 6.767123
14.301142 18.261837 1.993012 -182.443686 0.627690 -174.975175 0.000000 0.000000 0.000000 -22.286376 -1.382210 0.458086 5.899968 14.324415 44.566965 0.072995 -0.820603 5.411187 0.495760 -4.505861 -12.505732 0.000000 0.000000 0.000000 14.312622 23.799867 -23.866736 -3.028906 -10.741574 31.413428 -0.067311 -1.892706 -5.977357 -0.484920 -4.455949 12.364538 -4.469417 -1.949987 -1.606642 1.439884 -2.530744 -0.491877 3.928830 -1.270277 0.654154 -1.596478 0.381632 -10.446848 -2.476219 1.704885 16.685057 -0.358500 0.693102 6.828579 0.000000 0.000000 0.000000 6.535596 -36.986829 -21.670651 16.529970 -26.233972 3.877291 24.190951 -16.057047 -17.804178 0.000000 0.000000 0.000000 -7.125000 0.000000 0.000000 -3.772944 49.338755 0.401694 0.000000 0.000000 0.000000 -0.173461 2.434157 -23.158169 -4.348041 -7.480794 -0.284761 -19.417904 27.606347 -29.752404 0.000000 0.000000 0.000000 7.125000 0.000000 0.000000 6.669154 -1.052264 6.836839
14.309616 18.268154 1.925621 -182.177367 0.604053 -175.010519 0.000000 0.000000 0.000000 -21.828513 -1.505889 -0.492706 6.189856 14.607533 45.734863 0.050905 -0.652328 4.509057 0.452553 -4.315890 -11.967018 0.000000 0.000000 0.000000 14.765434 23.814408 -23.474521 -3.010369 -10.711790 31.314081 -0.072377 -1.960524 -6.199243 -0.535822 -4.690076 13.026684 -4.196580 -1.878797 -1.578891 1.450380 -2.440387 -0.520605 3.790252 -1.222260 0.589034 -1.612539 0.307453 -10.456054 -2.362521 1.613057 16.955089 -0.326375 0.660495 6.915244 0.000000 0.000000 0.000000 5.868916 -36.164175 -21.116517 16.392260 -26.046899 3.818172 23.439997 -14.578541 -17.801334 0.000000 0.000000 0.000000 -7.125000 0.000000 0.000000 -4.505557 49.215590 0.469400 0.000000 0.000000 0.000000 -0.068757 1.800720 -23.295371 -4.532030 -7.792878 -0.309227 -19.302451 27.498740 -29.999489 0.000000 0.000000 0.000000 7.125000 0.000000 0.000000 6.765176 -1.281216 6.963888
14.318126 18.278347 1.857731 -181.871578 0.553569 -175.054753 0.000000 0.000000 0.000000 -21.312085 -1.625657 -1.457723 6.462711 14.857262 46.802627 0.033259 -0.601363 3.604189 0.460054 -4.350796 -12.065774 0.000000 0.000000 0.000000 15.276670 23.804840 -23.062571 -2.996811 -10.689866 31.241047 -0.076127 -2.045482 -6.384111 -0.556640 -4.778303 13.277374 -3.863577 -1.786628 -1.472875 1.461053 -2.325139 -0.588590 3.621875 -1.159131 0.436331 -1.529745 0.227015 -10.379847 -2.381031 1.513050 17.130533 -0.354309 0.621310 6.958420 0.000000 0.000000 0.000000 5.357487 -35.616109 -20.780966 15.839146 -25.296176 3.580367 22.367089 -13.232778 -17.966970 0.000000 0.000000 0.000000 -7.125000 0.000000 0.000000 -5.587504 49.222466 0.583830 0.000000 0.000000 0.000000 0.059665 1.300062 -23.515674 -4.774835 -8.203675 -0.343509 -18.988151 27.503499 -30.435287 0.000000 0.000000 0.000000 7.125000 0.000000 0.000000 6.998172 -1.663357 7.253763
14.326966 18.288662 1.789564 -181.563618 0.488301 -175.114005 0.000000 0.000000 0.000000 -20.792045 -1.752630 -2.394647 6.730435 15.099385 47.845076 0.017107 -0.585374 2.707655 0.476149 -4.422840 -12.269920 0.000000 0.000000 0.000000 15.798810 23.783865 -22.626677 -2.983538 -10.668375 31.169472 -0.079851 -2.133400 -6.569543 -0.580897 -4.879430 13.565062 -3.535957 -1.699068 -1.371945 1.475538 -2.215482 -0.645776 3.459801 -1.099474 0.298803 -1.446170 0.144745 -10.277684 -2.409378 1.409701 17.274864 -0.385951 0.580059 6.986977 0.000000 0.000000 0.000000 4.873378 -35.082645 -20.498934 15.283775 -24.537970 3.344186 21.393597 -11.928728 -18.201092 0.000000 0.000000 0.000000 -7.125000 0.000000 0.000000 -6.593509 49.315632 0.707203 0.000000 0.000000 0.000000 0.187757 0.777466 -23.738330 -5.012535 -8.605504 -0.377607 -18.686743 27.529276 -30.861458 0.000000 0.000000 0.000000 7.125000 0.000000 0.000000 7.222418 -2.037902 7.534428
14.337304 18.299528 1.720137 -181.245808 0.355936 -175.241417 0.000000 0.000000 0.000000 -20.255615 -1.912304 -3.204076 6.974874 15.306995 48.772638 0.007732 -0.728124 1.848944 0.531248 -4.663433 -12.952369 0.000000 0.000000 0.000000 16.370435 23.711120 -22.082122 -2.971566 -10.648855 31.104516 -0.083457 -2.234753 -6.757537 -0.620755 -5.039104 14.020670 -3.232763 -1.632429 -1.294104 1.507319 -2.131197 -0.653949 3.326331 -1.055577 0.230145 -1.359049 0.054162 -10.057717 -2.482364 1.291183 17.277989 -0.434415 0.529430 6.949186 0.000000 0.000000 0.000000 4.513258 -34.615451 -20.459796 14.718160 -23.745801 3.115373 20.871302 -10.813990 -18.746032 0.000000 0.000000 0.000000 -7.125000 0.000000 0.000000 -7.254851 49.800424 0.871156 0.000000 0.000000 0.000000 0.314352 0.155309 -23.971662 -5.227069 -8.966634 -0.410879 -18.443842 27.650438 -31.243936 0.000000 0.000000 0.000000 7.125000 0.000000 0.000000 7.406950 -2.377972 7.773290
